<svg width="14" height="14" viewBox="0 0 14 14" fill="none" xmlns="http://www.w3.org/2000/svg">
<path d="M0 3C0 1.34314 1.34326 0 3 0H11C12.6567 0 14 1.34314 14 3V11C14 12.6569 12.6567 14 11 14H3C1.34326 14 0 12.6569 0 11V3ZM3 1.5C2.17139 1.5 1.5 2.17157 1.5 3V11C1.5 11.8284 2.17139 12.5 3 12.5H11C11.8286 12.5 12.5 11.8284 12.5 11V3C12.5 2.17157 11.8286 1.5 11 1.5H3ZM2.83252 6.8161L3.39893 6.27399L3.57617 6.10425L3.92334 5.77216L4.26904 6.10559L4.44531 6.27582L5.58398 7.37402L9.28271 3.81073L9.45996 3.64008L9.80664 3.3056L10.1538 3.63989L10.3311 3.81067L10.8936 4.35303L11.0708 4.52399L11.4434 4.88379L11.0708 5.24353L10.8936 5.41437L6.1084 10.0291L5.93115 10.2L5.58398 10.5344L5.23682 10.2L5.05957 10.0292L2.83057 7.87946L2.65283 7.70801L2.27832 7.34674L2.6543 6.98694L2.83252 6.8161Z" fill="#37352F" fill-opacity="0.45"/>
</svg>
