<svg width="14" height="14" viewBox="0 0 14 14" fill="none" xmlns="http://www.w3.org/2000/svg">
<path d="M14 6.22508C14 7.0471 13.8666 7.79918 13.5999 8.48134C13.3332 9.16351 12.9563 9.69867 12.4692 10.0868C11.9821 10.475 11.524 10.6862 10.9764 10.6862C10.5473 10.6862 10.1676 10.5849 9.83705 10.3823C9.50653 10.1796 9.2688 9.91274 9.12384 9.58165C8.51065 10.318 7.56114 10.6862 6.5928 10.6862C5.56647 10.6862 4.75762 10.3823 4.16618 9.77431C3.57473 9.16636 3.27902 8.33436 3.27902 7.27829C3.27902 6.0738 3.66752 5.10337 4.44451 4.36697C5.2215 3.63058 6.2362 3.26239 7.48867 3.26239C7.98734 3.26239 9.5206 3.47449 9.74131 3.53033C10.2518 3.65949 10.6003 4.12335 10.5763 4.6417C10.5697 4.78537 10.5175 5.88115 10.4198 7.92905C10.4198 8.72253 10.6401 9.11927 11.0808 9.11927C11.4519 9.11927 11.7476 8.8524 11.968 8.31865C12.1883 7.78491 12.2985 7.08706 12.2985 6.22508C12.2985 5.30601 12.1042 4.49399 11.7157 3.78899C11.3272 3.08399 10.7808 2.54597 10.0762 2.17492C9.37173 1.80387 8.56719 1.61835 7.66263 1.61835C6.49134 1.61835 5.47373 1.85525 4.60976 2.32905C3.74579 2.80286 3.08332 3.48644 2.62234 4.37981C2.16136 5.27319 1.93089 6.30499 1.93089 7.47523C1.93089 9.05077 2.35851 10.2595 3.21378 11.1015C4.06905 11.9435 5.30847 12.3645 6.93203 12.3645C7.54667 12.3645 8.22216 12.2975 8.95856 12.1633C9.18419 12.1222 9.47682 12.0555 9.83645 11.9632C10.2649 11.8532 10.7081 12.0814 10.8607 12.4905C11.0082 12.8863 10.802 13.3249 10.4001 13.4701C10.3865 13.475 10.3728 13.4796 10.359 13.4837C9.30721 13.7996 8.18808 13.9716 7.00161 14C4.7982 14 3.08041 13.4292 1.84823 12.2875C0.616061 11.1458 0 9.55883 0 7.52661C0 6.11661 0.314555 4.8365 0.943688 3.68624C1.57282 2.53598 2.46867 1.63405 3.63126 0.980429C4.79385 0.326807 6.13184 0 7.64524 0C8.9209 0 10.1589 0.290316 11.0634 0.770643C11.968 1.25097 12.6374 1.99796 13.1824 2.94557C13.7275 3.89318 14 4.98634 14 6.22508ZM5.38462 7.23555C5.38462 8.44263 5.87335 9.04616 6.85083 9.04616C7.3623 9.04616 7.75159 8.86452 8.01869 8.50126C8.28579 8.13799 8.44773 7.54734 8.50456 6.72927L8.61539 4.83286C8.32555 4.76993 7.9988 4.73846 7.63509 4.73846C6.92471 4.73846 6.37204 4.96157 5.97707 5.40779C5.58211 5.854 5.38462 6.46325 5.38462 7.23555Z" fill="#37352F" fill-opacity="0.45"/>
</svg>
