<svg width="14" height="14" viewBox="0 0 14 14" fill="none" xmlns="http://www.w3.org/2000/svg">
<g clip-path="url(#clip0_449_3892)">
<path d="M5.94578 14C4.62416 14 3.38248 13.4963 2.44892 12.585C1.51464 11.6736 1 10.4639 1 9.17405C1.00086 7.88562 1.51464 6.67434 2.44892 5.76378L7.45612 0.985988C8.80142 -0.327216 11.1777 -0.332396 12.5354 0.992848C13.9369 2.36163 13.9369 4.58722 12.5354 5.95418L8.03046 10.2414C7.16278 11.0877 5.73682 11.0894 4.86024 10.2345C3.98394 9.37789 3.98394 7.98769 4.86024 7.1327L6.60422 5.4317L7.87576 6.67196L6.13177 8.37297C6.01668 8.48539 6.00003 8.61545 6.00003 8.68335C6.00003 8.75083 6.01668 8.88103 6.13177 8.99429C6.36197 9.21689 6.53749 9.21689 6.76768 8.99429L11.2707 4.70622C11.9645 4.03016 11.9645 2.91757 11.2638 2.23311C10.5843 1.57007 9.40045 1.57007 8.72077 2.23311L3.71342 7.0109C3.12602 7.58406 2.79837 8.35435 2.79837 9.17405C2.79837 9.99459 3.12602 10.7654 3.72045 11.3446C4.90947 12.5062 6.98195 12.5062 8.17096 11.3446L10.4191 9.15165L11.6906 10.3919L9.4425 12.585C8.50808 13.4963 7.2664 14 5.94578 14Z" fill="#37352F" fill-opacity="0.45"/>
</g>
<defs>
<clipPath id="clip0_449_3892">
<rect width="14" height="14" fill="white"/>
</clipPath>
</defs>
</svg>
