<svg width="14" height="14" viewBox="0 0 14 14" fill="none" xmlns="http://www.w3.org/2000/svg">
<path d="M7.77892 7.06304L4.62218 11.2875C4.58556 11.3416 4.55285 11.4392 4.5504 11.5052C4.5504 11.7022 4.7047 11.8619 4.89562 11.8619H11.1383C11.6139 11.8619 11.9996 12.2598 11.9996 12.7507V13.1111C11.9996 13.602 11.6139 14 11.1383 14H1.86193C1.38585 14 1.00011 13.602 1.00011 13.1111V12.6858C0.997181 12.4783 1.05236 12.3098 1.17687 12.1466L4.39269 7.79888C4.74816 7.31841 4.74572 6.65139 4.38683 6.17354L1.40001 2.19436C1.27306 2.03028 1.21642 1.85993 1.21935 1.65006V0.888889C1.21935 0.397968 1.60509 0 2.08117 0H10.9191C11.3946 0 11.7804 0.397968 11.7804 0.888889V1.24925C11.7804 1.74017 11.3946 2.13814 10.9191 2.13814H5.13634C4.94542 2.13814 4.79064 2.29801 4.79064 2.49522C4.79308 2.56049 4.82482 2.65709 4.86095 2.71087L7.78038 6.68628C7.8297 6.74847 7.84435 6.7934 7.84142 6.87363C7.84435 6.95493 7.82921 7.00048 7.77892 7.06304Z" fill="#37352F" fill-opacity="0.45"/>
</svg>
