<svg width="14" height="14" viewBox="0 0 14 14" fill="none" xmlns="http://www.w3.org/2000/svg">
<path d="M4 3C4 2.44771 4.44771 2 5 2H12C12.5523 2 13 2.44772 13 3C13 3.55228 12.5523 4 12 4H5C4.44771 4 4 3.55228 4 3ZM4 7C4 6.44771 4.44771 6 5 6H12C12.5523 6 13 6.44772 13 7C13 7.55228 12.5523 8 12 8H5C4.44771 8 4 7.55228 4 7ZM4 11C4 10.4477 4.44771 10 5 10H12C12.5523 10 13 10.4477 13 11C13 11.5523 12.5523 12 12 12H5C4.44771 12 4 11.5523 4 11ZM2 4C1.44772 4 1 3.55228 1 3C1 2.44772 1.44772 2 2 2C2.55228 2 3 2.44772 3 3C3 3.55228 2.55228 4 2 4ZM2 8C1.44772 8 1 7.55228 1 7C1 6.44772 1.44772 6 2 6C2.55228 6 3 6.44772 3 7C3 7.55228 2.55228 8 2 8ZM2 12C1.44772 12 1 11.5523 1 11C1 10.4477 1.44772 10 2 10C2.55228 10 3 10.4477 3 11C3 11.5523 2.55228 12 2 12Z" fill="#37352F" fill-opacity="0.45"/>
</svg>
