<svg width="14" height="14" viewBox="0 0 14 14" fill="none" xmlns="http://www.w3.org/2000/svg">
<path d="M4.46191 0C3.8667 0 3.38428 0.482422 3.38428 1.07751V3.38425H1.07764C0.482422 3.38425 0 3.86667 0 4.46179C0 5.05688 0.482422 5.53931 1.07764 5.53931H3.38428V8.46063H1.07764C0.482422 8.46063 0 8.94308 0 9.53818C0 10.1333 0.482422 10.6157 1.07764 10.6157H3.38428V12.9224C3.38428 13.5175 3.8667 13.9999 4.46191 13.9999C5.05664 13.9999 5.53906 13.5175 5.53906 12.9224V10.6157H8.46045V12.9224C8.46045 13.5175 8.94287 13.9999 9.53809 13.9999C10.1333 13.9999 10.6157 13.5175 10.6157 12.9224V10.6157H12.9224C13.5176 10.6157 14 10.1333 14 9.53818C14 8.94308 13.5176 8.46063 12.9224 8.46063H10.6157V5.53931H12.9224C13.5176 5.53931 14 5.05688 14 4.46179C14 3.86667 13.5176 3.38425 12.9224 3.38425H10.6157V1.07751C10.6157 0.482422 10.1333 0 9.53809 0C8.94287 0 8.46045 0.482422 8.46045 1.07751V3.38425H5.53906V1.07751C5.53906 0.482422 5.05664 0 4.46191 0ZM5.53906 8.46063V5.53931H8.46045V8.46063H5.53906Z" fill="#37352F" fill-opacity="0.45"/>
</svg>
