<svg width="14" height="14" viewBox="0 0 14 14" fill="none" xmlns="http://www.w3.org/2000/svg">
<path d="M9.625 10.8465C8.91187 10.2891 8.12088 9.926 7 9.26013V8.71938C7.21175 8.47612 7.392 8.176 7.53813 7.83213C7.94587 7.7315 8.3125 7.33425 8.3125 7C8.3125 6.51788 8.1095 6.32713 7.8715 6.17137C7.8715 6.15562 7.875 6.14162 7.875 6.125C7.875 5.41362 7.4375 3.5 5.25 3.5C3.0625 3.5 2.625 5.4145 2.625 6.125C2.625 6.14162 2.6285 6.15562 2.6285 6.17137C2.3905 6.32713 2.1875 6.51788 2.1875 7C2.1875 7.33425 2.55413 7.7315 2.96187 7.833C3.108 8.176 3.28825 8.47612 3.5 8.71938V9.26013C2.37912 9.92513 1.58812 10.2882 0.875 10.8465C0.041125 11.4984 0 12.4688 0 14H10.5C10.5 12.4688 10.4589 11.4984 9.625 10.8465ZM13.125 7.3465C12.4119 6.78912 11.6209 6.426 10.5 5.76013V5.21938C10.7118 4.97613 10.892 4.676 11.0381 4.33213C11.4459 4.2315 11.8125 3.83425 11.8125 3.5C11.8125 3.01787 11.6095 2.82713 11.3715 2.67138C11.3715 2.65562 11.375 2.64162 11.375 2.625C11.375 1.91363 10.9375 0 8.75 0C6.5625 0 6.125 1.9145 6.125 2.625C6.125 2.64162 6.1285 2.65562 6.1285 2.67138C6.11188 2.68275 6.09787 2.69588 6.08125 2.70725C7.83212 3.066 8.59688 4.54825 8.72813 5.74787C8.97575 6.00863 9.1875 6.39625 9.1875 7C9.1875 7.60288 8.771 8.20312 8.18388 8.51462C8.127 8.624 8.06662 8.729 8.00275 8.82962C8.155 8.91537 8.30025 8.99675 8.44025 9.07463C9.08075 9.4325 9.63375 9.74137 10.164 10.1561C10.3022 10.2638 10.4204 10.3801 10.5289 10.4991H14C14 8.96875 13.9589 7.99837 13.125 7.3465Z" fill="#37352F" fill-opacity="0.45"/>
</svg>
