<svg width="14" height="14" viewBox="0 0 14 14" fill="none" xmlns="http://www.w3.org/2000/svg">
<path d="M7 4.56818C7 4.29204 6.77614 4.06818 6.5 4.06818H0.5C0.223858 4.06818 0 4.29204 0 4.56818V5.61364C0 5.88978 0.223858 6.11364 0.5 6.11364H6.5C6.77614 6.11364 7 5.88978 7 5.61364V4.56818ZM0.5 1C0.223858 1 0 1.22386 0 1.5V2.54545C0 2.8216 0.223858 3.04545 0.5 3.04545H12.5C12.7761 3.04545 13 2.8216 13 2.54545V1.5C13 1.22386 12.7761 1 12.5 1H0.5ZM0 8.68182C0 8.95796 0.223858 9.18182 0.5 9.18182H11.5C11.7761 9.18182 12 8.95796 12 8.68182V7.63636C12 7.36022 11.7761 7.13636 11.5 7.13636H0.5C0.223858 7.13636 0 7.36022 0 7.63636V8.68182ZM0 11.75C0 12.0261 0.223858 12.25 0.5 12.25H9.5C9.77614 12.25 10 12.0261 10 11.75V10.7045C10 10.4284 9.77614 10.2045 9.5 10.2045H0.5C0.223858 10.2045 0 10.4284 0 10.7045V11.75Z" fill="#37352F" fill-opacity="0.45"/>
</svg>
